
<svg xmlns="http://www.w3.org/2000/svg" viewBox="0 0 200 200" fill="none">
  <path d="M100 180C145.228 180 182 143.228 182 98C182 52.7715 145.228 16 100 16C54.7715 16 18 52.7715 18 98C18 143.228 54.7715 180 100 180Z" stroke="#0284c7" stroke-width="10"/>
  <path d="M100 150C128.66 150 152 126.66 152 98C152 69.34 128.66 46 100 46C71.34 46 48 69.34 48 98C48 126.66 71.34 150 100 150Z" stroke="#0284c7" stroke-width="10"/>
  <path d="M100 120C112.15 120 122 110.15 122 98C122 85.85 112.15 76 100 76C87.85 76 78 85.85 78 98C78 110.15 87.85 120 100 120Z" fill="#0284c7"/>
</svg>
